<?xml version="1.0" encoding="UTF-8"?>
<svg width="1951px" height="1085px" viewBox="0 0 1951 1085" version="1.1" xmlns="http://www.w3.org/2000/svg" xmlns:xlink="http://www.w3.org/1999/xlink">
    <title>streakPanel@3x</title>
    <defs>
        <linearGradient x1="50%" y1="0%" x2="50%" y2="100%" id="linearGradient-1">
            <stop stop-color="#00D4BA" offset="0%"></stop>
            <stop stop-color="#069AB9" offset="100%"></stop>
        </linearGradient>
    </defs>
    <g id="logo" stroke="none" stroke-width="1" fill="none" fill-rule="evenodd">
        <g id="streakPanel">
            <rect id="Rectangle" fill="url(#linearGradient-1)" x="0" y="0" width="1951" height="1085"></rect>
            <g id="ui-/-categoryFilter" transform="translate(512.000000, 426.000000)">
                <g id="ui-/-lousenge" transform="translate(487.600000, 0.000000)">
                    <g id="Group" transform="translate(0.400000, 0.000000)" fill="#FF3961" fill-rule="nonzero">
                        <g id="icon-/heart">
                            <path d="M75.3221872,31.2867072 C81.6139988,25.0845695 90.1492999,21.6 99.0493545,21.6 C107.949409,21.6 116.48471,25.0845695 122.776522,31.2867072 C129.069574,37.4842462 132.606186,45.8939495 132.606186,54.6630388 C132.606186,63.4321281 129.069574,71.8418314 122.775665,78.0402145 L73.3842164,125.331959 L24.2277594,78.0402144 C11.1240801,65.1293568 11.1240802,44.1967209 24.2277597,31.2858634 C37.3314393,18.3750059 58.5767014,18.3750058 71.6803811,31.2858631 L73.5017124,33.0803933 L75.3221872,31.2867072 Z" id="Path"></path>
                        </g>
                    </g>
                    <g id="icon-/heart-copy" transform="translate(245.400000, 0.000000)" fill="#FFB800">
                        <path d="M99.6923077,14.4 L79.209,60.092 L104.4,60.0923077 L47.9076923,133.2 L61.941,82.938 L43.2,82.9384615 L64.0129555,14.4 L99.6923077,14.4 Z" id="Combined-Shape"></path>
                    </g>
                    <path d="M23.3424,204.216 C24.5088,204.216 25.6392,203.9496 26.7336,203.4168 C27.828,202.884 28.7064,202.1856 29.3688,201.3216 L29.3688,201.3216 L26.928,199.0104 C26.4528,199.6296 25.9272,200.0976 25.3512,200.4144 C24.7752,200.7312 24.1488,200.8896 23.472,200.8896 C22.8672,200.8896 22.3056,200.778 21.7872,200.5548 C21.2688,200.3316 20.8188,200.022 20.4372,199.626 C20.0556,199.23 19.7568,198.7584 19.5408,198.2112 C19.3248,197.664 19.2168,197.0736 19.2168,196.44 C19.2168,195.8064 19.3212,195.2124 19.53,194.658 C19.7388,194.1036 20.0268,193.6284 20.394,193.2324 C20.7612,192.8364 21.1968,192.5232 21.7008,192.2928 C22.2048,192.0624 22.752,191.9472 23.3424,191.9472 C24.048,191.9472 24.7068,192.1164 25.3188,192.4548 C25.9308,192.7932 26.4816,193.2936 26.9712,193.956 L26.9712,193.956 L29.4768,191.58 C28.8144,190.6872 27.9288,189.9744 26.82,189.4416 C25.7112,188.9088 24.552,188.6424 23.3424,188.6424 C22.2192,188.6424 21.1716,188.844 20.1996,189.2472 C19.2276,189.6504 18.3852,190.1976 17.6724,190.8888 C16.9596,191.58 16.398,192.4044 15.9876,193.362 C15.5772,194.3196 15.372,195.3456 15.372,196.44 C15.372,197.5344 15.5772,198.5568 15.9876,199.5072 C16.398,200.4576 16.956,201.2784 17.6616,201.9696 C18.3672,202.6608 19.2096,203.208 20.1888,203.6112 C21.168,204.0144 22.2192,204.216 23.3424,204.216 Z M37.2959998,204 L37.2959998,198.0168 L43.4087998,198.0168 L43.4087998,204 L47.1239998,204 L47.1239998,188.88 L43.4087998,188.88 L43.4087998,194.7552 L37.2959998,194.7552 L37.2959998,188.88 L33.5807998,188.88 L33.5807998,204 L37.2959998,204 Z M54.6623997,204 L55.9367997,200.3928 L61.4663997,200.3928 L62.7191997,204 L66.7367997,204 L60.9263997,188.88 L56.6927997,188.88 L50.7959997,204 L54.6623997,204 Z M60.4727997,197.52 L56.9519997,197.52 L58.7231997,192.5088 L60.4727997,197.52 Z M74.3399995,204 L74.3399995,198.4488 L76.7807995,198.4488 L79.5239995,204 L83.6711995,204 L80.4959995,197.9304 C81.3455995,197.556 82.0259995,196.9944 82.5371995,196.2456 C83.0483995,195.4968 83.3039995,194.6472 83.3039995,193.6968 C83.3039995,192.9912 83.1707995,192.3432 82.9043995,191.7528 C82.6379995,191.1624 82.2707995,190.6548 81.8027995,190.23 C81.3347995,189.8052 80.7731995,189.474 80.1179995,189.2364 C79.4627995,188.9988 78.7463995,188.88 77.9687995,188.88 L77.9687995,188.88 L70.6247995,188.88 L70.6247995,204 L74.3399995,204 Z M77.6231995,195.5328 L74.3399995,195.5328 L74.3399995,191.9472 L77.6231995,191.9472 C78.1991995,191.9472 78.6635995,192.1128 79.0163995,192.444 C79.3691995,192.7752 79.5455995,193.2072 79.5455995,193.74 C79.5455995,194.2728 79.3691995,194.7048 79.0163995,195.036 C78.6635995,195.3672 78.1991995,195.5328 77.6231995,195.5328 L77.6231995,195.5328 Z M91.4687994,204 L91.4687994,188.88 L87.7535994,188.88 L87.7535994,204 L91.4687994,204 Z M104.147999,204 L104.147999,192.0552 L109.007999,192.0552 L109.007999,188.88 L95.5511992,188.88 L95.5511992,192.0552 L100.432799,192.0552 L100.432799,204 L104.147999,204 Z M121.665599,204 L121.665599,198.2544 L127.821599,188.88 L123.782399,188.88 L119.915999,195.0792 L116.092799,188.88 L111.815999,188.88 L117.950399,198.276 L117.950399,204 L121.665599,204 Z" id="CHARITY" fill="#FFFFFF" fill-rule="nonzero"></path>
                    <path d="M227.8,204 L227.8,197.1312 L233.3944,204 L238.2544,204 L231.256,195.9864 L237.8656,188.88 L233.4376,188.88 L227.8,195.4464 L227.8,188.88 L224.0848,188.88 L224.0848,204 L227.8,204 Z M245.6848,204 L245.6848,188.88 L241.9696,188.88 L241.9696,204 L245.6848,204 Z M254.4976,204 L254.4328,194.5392 L261.3664,204 L264.6496,204 L264.6496,188.88 L261.1504,188.88 L261.2152,198.0384 L254.4976,188.88 L250.9984,188.88 L250.9984,204 L254.4976,204 Z M276.3352,204 C277.3864,204 278.3764,203.8056 279.3052,203.4168 C280.234,203.028 281.0404,202.4952 281.7244,201.8184 C282.4084,201.1416 282.9484,200.3424 283.3444,199.4208 C283.7404,198.4992 283.9384,197.52 283.9384,196.4832 C283.9384,195.4176 283.7404,194.4204 283.3444,193.4916 C282.9484,192.5628 282.4084,191.76 281.7244,191.0832 C281.0404,190.4064 280.234,189.87 279.3052,189.474 C278.3764,189.078 277.3864,188.88 276.3352,188.88 L276.3352,188.88 L270.1792,188.88 L270.1792,204 L276.3352,204 Z M276.3352,200.8248 L273.8944,200.8248 L273.8944,192.0552 L276.3352,192.0552 C276.8536,192.0552 277.3432,192.1704 277.804,192.4008 C278.2648,192.6312 278.6644,192.9444 279.0028,193.3404 C279.3412,193.7364 279.6076,194.2044 279.802,194.7444 C279.9964,195.2844 280.0936,195.864 280.0936,196.4832 C280.0936,197.088 279.9964,197.6568 279.802,198.1896 C279.6076,198.7224 279.3412,199.1832 279.0028,199.572 C278.6644,199.9608 278.2648,200.2668 277.804,200.49 C277.3432,200.7132 276.8536,200.8248 276.3352,200.8248 L276.3352,200.8248 Z M300.829599,204.216 C302.802399,204.216 304.371999,203.7552 305.538399,202.8336 C306.704799,201.912 307.287999,200.724 307.287999,199.2696 C307.287999,198.1176 306.920799,197.178 306.186399,196.4508 C305.451999,195.7236 304.379199,195.2376 302.967999,194.9928 L302.967999,194.9928 L299.943999,194.4744 C299.339199,194.3736 298.903599,194.2152 298.637199,193.9992 C298.370799,193.7832 298.237599,193.488 298.237599,193.1136 C298.237599,192.7104 298.439199,192.372 298.842399,192.0984 C299.245599,191.8248 299.814399,191.688 300.548799,191.688 C301.340799,191.688 302.107599,191.8248 302.849199,192.0984 C303.590799,192.372 304.328799,192.7896 305.063199,193.3512 L305.063199,193.3512 L306.942399,190.6512 C306.164799,190.032 305.228799,189.546 304.134399,189.1932 C303.039999,188.8404 301.909599,188.664 300.743199,188.664 C298.871199,188.664 297.402399,189.096 296.336799,189.96 C295.271199,190.824 294.738399,191.9832 294.738399,193.4376 C294.738399,194.4888 295.058799,195.3672 295.699599,196.0728 C296.340399,196.7784 297.258399,197.2464 298.453599,197.4768 L298.453599,197.4768 L301.671999,198.0384 C302.406399,198.1824 302.921199,198.3696 303.216399,198.6 C303.511599,198.8304 303.659199,199.1688 303.659199,199.6152 C303.659199,200.076 303.428799,200.454 302.967999,200.7492 C302.507199,201.0444 301.880799,201.192 301.088799,201.192 C300.354399,201.192 299.612799,201.0408 298.863999,200.7384 C298.115199,200.436 297.222399,199.9176 296.185599,199.1832 L296.185599,199.1832 L294.284799,201.9264 C295.278399,202.6608 296.318799,203.226 297.405999,203.622 C298.493199,204.018 299.634399,204.216 300.829599,204.216 Z M318.908799,204 L318.908799,192.0552 L323.768799,192.0552 L323.768799,188.88 L310.311999,188.88 L310.311999,192.0552 L315.193599,192.0552 L315.193599,204 L318.908799,204 Z M331.782399,204 L331.782399,198.4488 L334.223199,198.4488 L336.966399,204 L341.113599,204 L337.938399,197.9304 C338.787999,197.556 339.468399,196.9944 339.979599,196.2456 C340.490799,195.4968 340.746399,194.6472 340.746399,193.6968 C340.746399,192.9912 340.613199,192.3432 340.346799,191.7528 C340.080399,191.1624 339.713199,190.6548 339.245199,190.23 C338.777199,189.8052 338.215599,189.474 337.560399,189.2364 C336.905199,188.9988 336.188799,188.88 335.411199,188.88 L335.411199,188.88 L328.067199,188.88 L328.067199,204 L331.782399,204 Z M335.065599,195.5328 L331.782399,195.5328 L331.782399,191.9472 L335.065599,191.9472 C335.641599,191.9472 336.105999,192.1128 336.458799,192.444 C336.811599,192.7752 336.987999,193.2072 336.987999,193.74 C336.987999,194.2728 336.811599,194.7048 336.458799,195.036 C336.105999,195.3672 335.641599,195.5328 335.065599,195.5328 L335.065599,195.5328 Z M356.924799,204 L356.924799,200.8896 L349.127199,200.8896 L349.127199,197.8872 L354.570399,197.8872 L354.570399,194.8632 L349.127199,194.8632 L349.127199,191.9904 L356.838399,191.9904 L356.838399,188.88 L345.411999,188.88 L345.411999,204 L356.924799,204 Z M364.441599,204 L365.715999,200.3928 L371.245599,200.3928 L372.498399,204 L376.515999,204 L370.705599,188.88 L366.471999,188.88 L360.575199,204 L364.441599,204 Z M370.251999,197.52 L366.731199,197.52 L368.502399,192.5088 L370.251999,197.52 Z M384.119198,204 L384.119198,197.1312 L389.713598,204 L394.573598,204 L387.575198,195.9864 L394.184798,188.88 L389.756798,188.88 L384.119198,195.4464 L384.119198,188.88 L380.403998,188.88 L380.403998,204 L384.119198,204 Z M403.775198,204.216 C405.747998,204.216 407.317598,203.7552 408.483998,202.8336 C409.650398,201.912 410.233598,200.724 410.233598,199.2696 C410.233598,198.1176 409.866398,197.178 409.131998,196.4508 C408.397598,195.7236 407.324798,195.2376 405.913598,194.9928 L405.913598,194.9928 L402.889598,194.4744 C402.284798,194.3736 401.849198,194.2152 401.582798,193.9992 C401.316398,193.7832 401.183198,193.488 401.183198,193.1136 C401.183198,192.7104 401.384798,192.372 401.787998,192.0984 C402.191198,191.8248 402.759998,191.688 403.494398,191.688 C404.286398,191.688 405.053198,191.8248 405.794798,192.0984 C406.536398,192.372 407.274398,192.7896 408.008798,193.3512 L408.008798,193.3512 L409.887998,190.6512 C409.110398,190.032 408.174398,189.546 407.079998,189.1932 C405.985598,188.8404 404.855198,188.664 403.688798,188.664 C401.816798,188.664 400.347998,189.096 399.282398,189.96 C398.216798,190.824 397.683998,191.9832 397.683998,193.4376 C397.683998,194.4888 398.004398,195.3672 398.645198,196.0728 C399.285998,196.7784 400.203998,197.2464 401.399198,197.4768 L401.399198,197.4768 L404.617598,198.0384 C405.351998,198.1824 405.866798,198.3696 406.161998,198.6 C406.457198,198.8304 406.604798,199.1688 406.604798,199.6152 C406.604798,200.076 406.374398,200.454 405.913598,200.7492 C405.452798,201.0444 404.826398,201.192 404.034398,201.192 C403.299998,201.192 402.558398,201.0408 401.809598,200.7384 C401.060798,200.436 400.167998,199.9176 399.131198,199.1832 L399.131198,199.1832 L397.230398,201.9264 C398.223998,202.6608 399.264398,203.226 400.351598,203.622 C401.438798,204.018 402.579998,204.216 403.775198,204.216 Z" id="KINDSTREAKS" fill="#FFFFFF" fill-rule="nonzero"></path>
                </g>
                <g id="ui-/-lousenge-copy" transform="translate(223.000000, 0.000000)" fill-rule="nonzero">
                    <g id="icon-/heart" transform="translate(21.000000, 0.000000)">
                        <path d="M46.7344035,112.425387 L27.0599853,132.253606 C23.7166254,135.623102 18,133.236687 18,128.4715 L18,26.8461137 C18,17.9840898 25.1283653,10.8 33.9216495,10.8 L108.22268,10.8 C117.015965,10.8 124.14433,17.9840898 124.14433,26.8461137 L124.14433,96.379273 C124.14433,105.241297 117.015965,112.425387 108.22268,112.425387 L46.7344035,112.425387 Z" id="Path" fill="#00D4BA"></path>
                        <rect id="Rectangle" fill="#FFFFFF" x="39.2727273" y="76.1533271" width="40.4359352" height="10.2525773"></rect>
                        <rect id="Rectangle" fill="#FFFFFF" x="39.2727273" y="54.8805998" width="65.7083947" height="10.2525773"></rect>
                        <rect id="Rectangle" fill="#FFFFFF" x="39.2727273" y="32.0727273" width="65.7083947" height="10.2525773"></rect>
                    </g>
                    <path d="M5.184,204 L5.184,198.0168 L11.2968,198.0168 L11.2968,204 L15.012,204 L15.012,188.88 L11.2968,188.88 L11.2968,194.7552 L5.184,194.7552 L5.184,188.88 L1.4688,188.88 L1.4688,204 L5.184,204 Z M31.8383998,204 L31.8383998,200.8896 L24.0407998,200.8896 L24.0407998,197.8872 L29.4839998,197.8872 L29.4839998,194.8632 L24.0407998,194.8632 L24.0407998,191.9904 L31.7519998,191.9904 L31.7519998,188.88 L20.3255998,188.88 L20.3255998,204 L31.8383998,204 Z M48.1247997,204 L48.1247997,200.8248 L40.6295997,200.8248 L40.6295997,188.88 L36.9143997,188.88 L36.9143997,204 L48.1247997,204 Z M56.7863995,204 L56.7863995,198.7296 L60.4583995,198.7296 C61.2647995,198.7296 61.9955995,198.6036 62.6507995,198.3516 C63.3059995,198.0996 63.8675995,197.7576 64.3355995,197.3256 C64.8035995,196.8936 65.1635995,196.3788 65.4155995,195.7812 C65.6675995,195.1836 65.7935995,194.5464 65.7935995,193.8696 C65.7935995,193.1496 65.6675995,192.4836 65.4155995,191.8716 C65.1635995,191.2596 64.8035995,190.734 64.3355995,190.2948 C63.8675995,189.8556 63.3059995,189.51 62.6507995,189.258 C61.9955995,189.006 61.2647995,188.88 60.4583995,188.88 L60.4583995,188.88 L53.0711995,188.88 L53.0711995,204 L56.7863995,204 Z M59.7887995,195.7704 L56.7863995,195.7704 L56.7863995,191.9472 L59.8103995,191.9472 C60.5447995,191.9472 61.0991995,192.1308 61.4735995,192.498 C61.8479995,192.8652 62.0351995,193.3152 62.0351995,193.848 C62.0351995,194.3952 61.8479995,194.8524 61.4735995,195.2196 C61.0991995,195.5868 60.5375995,195.7704 59.7887995,195.7704 L59.7887995,195.7704 Z M83.6351992,204 L86.3135992,194.2584 L88.9703992,204 L92.9015992,204 L96.2711992,188.88 L92.5775992,188.88 L90.7415992,198.2544 L88.1063992,188.88 L84.6287992,188.88 L81.9935992,198.2544 L80.1575992,188.88 L76.3343992,188.88 L79.7039992,204 L83.6351992,204 Z M101.692799,204 L102.967199,200.3928 L108.496799,200.3928 L109.749599,204 L113.767199,204 L107.956799,188.88 L103.723199,188.88 L97.8263991,204 L101.692799,204 Z M107.503199,197.52 L103.982399,197.52 L105.753599,192.5088 L107.503199,197.52 Z M121.154399,204 L121.089599,194.5392 L128.023199,204 L131.306399,204 L131.306399,188.88 L127.807199,188.88 L127.871999,198.0384 L121.154399,188.88 L117.655199,188.88 L117.655199,204 L121.154399,204 Z M144.201599,204 L144.201599,192.0552 L149.061599,192.0552 L149.061599,188.88 L135.604799,188.88 L135.604799,192.0552 L140.486399,192.0552 L140.486399,204 L144.201599,204 Z M164.872799,204 L164.872799,200.8896 L157.075199,200.8896 L157.075199,197.8872 L162.518399,197.8872 L162.518399,194.8632 L157.075199,194.8632 L157.075199,191.9904 L164.786399,191.9904 L164.786399,188.88 L153.359999,188.88 L153.359999,204 L164.872799,204 Z M176.104798,204 C177.155998,204 178.145998,203.8056 179.074798,203.4168 C180.003598,203.028 180.809998,202.4952 181.493998,201.8184 C182.177998,201.1416 182.717998,200.3424 183.113998,199.4208 C183.509998,198.4992 183.707998,197.52 183.707998,196.4832 C183.707998,195.4176 183.509998,194.4204 183.113998,193.4916 C182.717998,192.5628 182.177998,191.76 181.493998,191.0832 C180.809998,190.4064 180.003598,189.87 179.074798,189.474 C178.145998,189.078 177.155998,188.88 176.104798,188.88 L176.104798,188.88 L169.948798,188.88 L169.948798,204 L176.104798,204 Z M176.104798,200.8248 L173.663998,200.8248 L173.663998,192.0552 L176.104798,192.0552 C176.623198,192.0552 177.112798,192.1704 177.573598,192.4008 C178.034398,192.6312 178.433998,192.9444 178.772398,193.3404 C179.110798,193.7364 179.377198,194.2044 179.571598,194.7444 C179.765998,195.2844 179.863198,195.864 179.863198,196.4832 C179.863198,197.088 179.765998,197.6568 179.571598,198.1896 C179.377198,198.7224 179.110798,199.1832 178.772398,199.572 C178.433998,199.9608 178.034398,200.2668 177.573598,200.49 C177.112798,200.7132 176.623198,200.8248 176.104798,200.8248 L176.104798,200.8248 Z" id="HELPWANTED" fill="#FFFFFF"></path>
                </g>
                <g id="ui-/-lousenge-copy-2" fill="#FFFFFF">
                    <g id="icon-/heart">
                        <path d="M52.9686952,7.69352844 L81.5819248,18.8706821 C83.1064279,19.466197 84.3825438,20.5633465 85.1999476,21.9813023 L126.897658,94.314599 C128.881736,97.7563918 127.703184,102.154812 124.264027,104.143455 L70.4944103,135.234959 C67.0520238,137.225469 62.6477907,136.048491 60.6572805,132.606105 C60.6556863,132.603348 60.6540941,132.60059 60.6525036,132.597831 L18.9622431,60.2774585 C18.1461173,58.8617196 17.8358645,57.2104681 18.0824685,55.5950535 L22.7270894,25.1697958 C23.0567786,23.0101193 24.3492184,21.1169483 26.2404954,20.0233447 L46.7448112,8.16702037 C48.6396235,7.07137249 50.9299425,6.8971328 52.9686952,7.69352844 Z M48.9068182,21.6 C43.7668044,21.6 39.6,25.7668044 39.6,30.9068182 C39.6,36.0468319 43.7668044,40.2136364 48.9068182,40.2136364 C54.0468319,40.2136364 58.2136364,36.0468319 58.2136364,30.9068182 C58.2136364,25.7668044 54.0468319,21.6 48.9068182,21.6 Z" id="Combined-Shape"></path>
                    </g>
                    <path d="M14.4,204 L14.4,197.9952 L19.8432,197.9952 L19.8432,194.9712 L14.4,194.9712 L14.4,191.9904 L22.1976,191.9904 L22.1976,188.88 L10.6848,188.88 L10.6848,204 L14.4,204 Z M33.4079998,204.2376 C34.5023998,204.2376 35.5247998,204.036 36.4751998,203.6328 C37.4255998,203.2296 38.2499998,202.6788 38.9483998,201.9804 C39.6467998,201.282 40.1975998,200.454 40.6007998,199.4964 C41.0039998,198.5388 41.2055998,197.52 41.2055998,196.44 C41.2055998,195.36 41.0039998,194.3412 40.6007998,193.3836 C40.1975998,192.426 39.6467998,191.598 38.9483998,190.8996 C38.2499998,190.2012 37.4255998,189.6504 36.4751998,189.2472 C35.5247998,188.844 34.5023998,188.6424 33.4079998,188.6424 C32.3135998,188.6424 31.2875998,188.844 30.3299998,189.2472 C29.3723998,189.6504 28.5443998,190.2012 27.8459998,190.8996 C27.1475998,191.598 26.5967998,192.426 26.1935998,193.3836 C25.7903998,194.3412 25.5887998,195.36 25.5887998,196.44 C25.5887998,197.52 25.7903998,198.5388 26.1935998,199.4964 C26.5967998,200.454 27.1475998,201.282 27.8459998,201.9804 C28.5443998,202.6788 29.3723998,203.2296 30.3299998,203.6328 C31.2875998,204.036 32.3135998,204.2376 33.4079998,204.2376 Z M33.3863998,200.9328 C32.8247998,200.9328 32.2991998,200.8176 31.8095998,200.5872 C31.3199998,200.3568 30.8987998,200.0436 30.5459998,199.6476 C30.1931998,199.2516 29.9159998,198.7764 29.7143998,198.222 C29.5127998,197.6676 29.4119998,197.0736 29.4119998,196.44 C29.4119998,195.8064 29.5127998,195.2124 29.7143998,194.658 C29.9159998,194.1036 30.1931998,193.6284 30.5459998,193.2324 C30.8987998,192.8364 31.3199998,192.5232 31.8095998,192.2928 C32.2991998,192.0624 32.8247998,191.9472 33.3863998,191.9472 C33.9479998,191.9472 34.4735998,192.0624 34.9631998,192.2928 C35.4527998,192.5232 35.8739998,192.8364 36.2267998,193.2324 C36.5795998,193.6284 36.8567998,194.1036 37.0583998,194.658 C37.2599998,195.2124 37.3607998,195.8064 37.3607998,196.44 C37.3607998,197.0736 37.2599998,197.6676 37.0583998,198.222 C36.8567998,198.7764 36.5795998,199.2516 36.2267998,199.6476 C35.8739998,200.0436 35.4527998,200.3568 34.9631998,200.5872 C34.4735998,200.8176 33.9479998,200.9328 33.3863998,200.9328 Z M49.7375997,204 L49.7375997,198.4488 L52.1783997,198.4488 L54.9215997,204 L59.0687997,204 L55.8935997,197.9304 C56.7431997,197.556 57.4235997,196.9944 57.9347997,196.2456 C58.4459997,195.4968 58.7015997,194.6472 58.7015997,193.6968 C58.7015997,192.9912 58.5683997,192.3432 58.3019997,191.7528 C58.0355997,191.1624 57.6683997,190.6548 57.2003997,190.23 C56.7323997,189.8052 56.1707997,189.474 55.5155997,189.2364 C54.8603997,188.9988 54.1439997,188.88 53.3663997,188.88 L53.3663997,188.88 L46.0223997,188.88 L46.0223997,204 L49.7375997,204 Z M53.0207997,195.5328 L49.7375997,195.5328 L49.7375997,191.9472 L53.0207997,191.9472 C53.5967997,191.9472 54.0611997,192.1128 54.4139997,192.444 C54.7667997,192.7752 54.9431997,193.2072 54.9431997,193.74 C54.9431997,194.2728 54.7667997,194.7048 54.4139997,195.036 C54.0611997,195.3672 53.5967997,195.5328 53.0207997,195.5328 L53.0207997,195.5328 Z M75.4415994,204.216 C77.4143994,204.216 78.9839994,203.7552 80.1503994,202.8336 C81.3167994,201.912 81.8999994,200.724 81.8999994,199.2696 C81.8999994,198.1176 81.5327994,197.178 80.7983994,196.4508 C80.0639994,195.7236 78.9911994,195.2376 77.5799994,194.9928 L77.5799994,194.9928 L74.5559994,194.4744 C73.9511994,194.3736 73.5155994,194.2152 73.2491994,193.9992 C72.9827994,193.7832 72.8495994,193.488 72.8495994,193.1136 C72.8495994,192.7104 73.0511994,192.372 73.4543994,192.0984 C73.8575994,191.8248 74.4263994,191.688 75.1607994,191.688 C75.9527994,191.688 76.7195994,191.8248 77.4611994,192.0984 C78.2027994,192.372 78.9407994,192.7896 79.6751994,193.3512 L79.6751994,193.3512 L81.5543994,190.6512 C80.7767994,190.032 79.8407994,189.546 78.7463994,189.1932 C77.6519994,188.8404 76.5215994,188.664 75.3551994,188.664 C73.4831994,188.664 72.0143994,189.096 70.9487994,189.96 C69.8831994,190.824 69.3503994,191.9832 69.3503994,193.4376 C69.3503994,194.4888 69.6707994,195.3672 70.3115994,196.0728 C70.9523994,196.7784 71.8703994,197.2464 73.0655994,197.4768 L73.0655994,197.4768 L76.2839994,198.0384 C77.0183994,198.1824 77.5331994,198.3696 77.8283994,198.6 C78.1235994,198.8304 78.2711994,199.1688 78.2711994,199.6152 C78.2711994,200.076 78.0407994,200.454 77.5799994,200.7492 C77.1191994,201.0444 76.4927994,201.192 75.7007994,201.192 C74.9663994,201.192 74.2247994,201.0408 73.4759994,200.7384 C72.7271994,200.436 71.8343994,199.9176 70.7975994,199.1832 L70.7975994,199.1832 L68.8967994,201.9264 C69.8903994,202.6608 70.9307994,203.226 72.0179994,203.622 C73.1051994,204.018 74.2463994,204.216 75.4415994,204.216 Z M88.4879992,204 L89.7623992,200.3928 L95.2919992,200.3928 L96.5447992,204 L100.562399,204 L94.7519992,188.88 L90.5183992,188.88 L84.6215992,204 L88.4879992,204 Z M94.2983992,197.52 L90.7775992,197.52 L92.5487992,192.5088 L94.2983992,197.52 Z M115.660799,204 L115.660799,200.8248 L108.165599,200.8248 L108.165599,188.88 L104.450399,188.88 L104.450399,204 L115.660799,204 Z M132.119999,204 L132.119999,200.8896 L124.322399,200.8896 L124.322399,197.8872 L129.765599,197.8872 L129.765599,194.8632 L124.322399,194.8632 L124.322399,191.9904 L132.033599,191.9904 L132.033599,188.88 L120.607199,188.88 L120.607199,204 L132.119999,204 Z" id="FORSALE" fill-rule="nonzero"></path>
                </g>
            </g>
        </g>
    </g>
</svg>