<svg height="257" viewBox="0 0 194 257" width="194" xmlns="http://www.w3.org/2000/svg"><g fill="none"><path d="m101.475724 42.1501472c8.476469-8.3556578 19.975416-13.0501472 31.965767-13.0501472 11.990352 0 23.489299 4.6944894 31.965768 13.0501472 8.47814 8.3494623 13.242741 19.6792014 13.242741 31.4931134s-4.764601 23.1436511-13.243895 31.4942504l-66.5412579 63.712489-66.2246713-63.712489c-17.6535679-17.3937943-17.6535677-45.5947065.0000005-62.9885006s46.2756575-17.3937943 63.9292261-.0000004l2.453738 2.417631z" fill="#ff3961"/><path d="m49.7100488 256.22c1.188 0 2.3393334-.271333 3.454-.814 1.1146667-.542667 2.0093334-1.254 2.684-2.134l-2.486-2.354c-.484.630667-1.0193333 1.107333-1.606 1.43-.5866666.322667-1.2246666.484-1.914.484-.616 0-1.188-.113667-1.716-.341s-.9863333-.542667-1.375-.946c-.3886666-.403333-.693-.883667-.913-1.441s-.33-1.158667-.33-1.804.1063334-1.250333.319-1.815c.2126667-.564667.506-1.048667.88-1.452s.8176667-.722333 1.331-.957c.5133334-.234667 1.0706667-.352 1.672-.352.7186667 0 1.3896667.172333 2.013.517.6233334.344667 1.1843334.854333 1.683 1.529l2.552-2.42c-.6746666-.909333-1.5766666-1.635333-2.706-2.178-1.1293333-.542667-2.31-.814-3.542-.814-1.144 0-2.211.205333-3.201.616s-1.848.968-2.574 1.672-1.298 1.543667-1.716 2.519-.627 2.020333-.627 3.135.209 2.156.627 3.124.9863334 1.804 1.705 2.508c.7186667.704 1.5766667 1.261333 2.574 1.672.9973334.410667 2.068.616 3.212.616zm13.3685575-.22v-6.094h6.226v6.094h3.784v-15.4h-3.784v5.984h-6.226v-5.984h-3.784v15.4zm16.8445575 0 1.298-3.674h5.632l1.276 3.674h4.092l-5.918-15.4h-4.312l-6.006 15.4zm5.918-6.6h-3.586l1.804-5.104zm13.2805575 6.6v-5.654h2.4859997l2.794 5.654h4.224l-3.234-6.182c.865334-.381333 1.558334-.953333 2.079-1.716.520667-.762667.781-1.628.781-2.596 0-.718667-.135666-1.378667-.407-1.98-.271333-.601333-.645333-1.118333-1.122-1.551-.476666-.432667-1.048666-.77-1.716-1.012-.667333-.242-1.397-.363-2.189-.363h-7.4799997v15.4zm3.3439997-8.624h-3.3439997v-3.652h3.3439997c.586667 0 1.059667.168667 1.419.506.359334.337333.539.777333.539 1.32s-.179666.982667-.539 1.32c-.359333.337333-.832333.506-1.419.506zm13.258558 8.624v-15.4h-3.784v15.4zm12.070557 0v-12.166h4.95v-3.234h-13.706v3.234h4.972v12.166zm16.998558 0v-5.852l6.27-9.548h-4.114l-3.938 6.314-3.894-6.314h-4.356l6.248 9.57v5.83z" fill="#fff"/></g></svg>