 
<svg version="1.1" viewBox="0 0 375 692" xmlns="http://www.w3.org/2000/svg">
<defs>
<linearGradient id="e" x1="53.086%" x2="52.003%" y1="107%" y2="5.9179%">
<stop stop-color="#F2652A" offset="0"/>
<stop stop-color="#FFB000" offset="1"/>
</linearGradient>
<linearGradient id="d" x1="48.055%" x2="49.044%" y1="20.07%" y2="70.764%">
<stop stop-color="#E4068E" offset="0"/>
<stop stop-color="#4878D0" offset="1"/>
</linearGradient>
<linearGradient id="c" x1="50%" x2="50%" y2="100%">
<stop stop-color="#00B098" offset="0"/>
<stop stop-color="#069AB9" offset="1"/>
</linearGradient>
<linearGradient id="b" x1="48.945%" x2="44.148%" y1="78.07%" y2="12.118%">
<stop stop-color="#53D880" offset="0"/>
<stop stop-color="#D6DD23" offset="1"/>
</linearGradient>
<linearGradient id="a" x1="55.867%" x2="53.809%" y1="107%" y2="5.9179%">
<stop stop-color="#EE4035" offset="0"/>
<stop stop-color="#EF8C32" offset="1"/>
</linearGradient>
</defs>
<g fill="none" fill-rule="evenodd">
<rect width="1921" height="1080" fill="#696C91"/>
<g transform="translate(-251 -401)">
<path transform="translate(409.03 600.29) rotate(44) translate(-409.03 -600.29)" d="m408.96 164.33c81.462 0.023705 147.49 66.062 147.5 147.52l0.088308 576.95c0.012462 81.415-65.978 147.43-147.39 147.44-0.02182 1e-5 -0.04364 1e-5 -0.065459 0-81.462-0.0237-147.49-66.062-147.5-147.52l-0.088308-576.95c-0.012462-81.415 65.978-147.43 147.39-147.44 0.02182-4e-6 0.04364-2e-6 0.06546 4e-6z" fill="url(#e)"/>
<path transform="translate(491.29 781.98) rotate(41) translate(-491.29 -781.98)" d="m491.2 235.02c81.46 0.023233 147.49 66.06 147.5 147.52l0.1225 798.96c0.012483 81.414-65.977 147.42-147.39 147.44-0.021548 0-0.043097 0-0.064645-1e-5 -81.46-0.02323-147.49-66.06-147.5-147.52l-0.1225-798.96c-0.012484-81.414 65.977-147.42 147.39-147.44 0.021548-3e-6 0.043096-2e-6 0.064645 4e-6z" fill="url(#d)" fill-rule="nonzero"/>
<path transform="translate(654.09 767.76) rotate(42) translate(-654.09 -767.76)" d="m654.03 465.03c82.318 0.017289 149.05 66.745 149.06 149.06l0.064557 307.4c0.017278 82.273-66.664 148.98-148.94 149h-0.062571c-82.318-0.01729-149.05-66.745-149.06-149.06l-0.064557-307.4c-0.017278-82.273 66.664-148.98 148.94-149 0.020857-4e-6 0.041714-4e-6 0.062571 0z" fill="url(#c)"/>
<path transform="translate(530.09 1055.8) rotate(42) translate(-530.09 -1055.8)" d="m530.03 753.03c82.318 0.017289 149.05 66.745 149.06 149.06l0.064557 307.4c0.017278 82.273-66.664 148.98-148.94 149h-0.062571c-82.318-0.01729-149.05-66.745-149.06-149.06l-0.064557-307.4c-0.017278-82.273 66.664-148.98 148.94-149 0.020857-4e-6 0.041714-4e-6 0.062571 0z" fill="url(#b)"/>
<path transform="translate(453.55 330.21) rotate(44) translate(-453.55 -330.21)" d="m453.48 14.031c81.462 0.017192 147.5 66.051 147.51 147.51l0.071206 337.4c0.017182 81.417-65.971 147.43-147.39 147.45-0.020741 5e-6 -0.041482 5e-6 -0.062223 0-81.462-0.017192-147.5-66.051-147.51-147.51l-0.071206-337.4c-0.017182-81.417 65.971-147.43 147.39-147.45 0.020741-4.4e-6 0.041482-4.4e-6 0.062223 0z" fill="url(#a)"/>
</g>
</g>
</svg>
