<?xml version="1.0" encoding="UTF-8"?>
<svg width="1920px" height="1080px" viewBox="0 0 1920 1080" version="1.1" xmlns="http://www.w3.org/2000/svg" xmlns:xlink="http://www.w3.org/1999/xlink">
    <title>mainimage</title>
    <defs>
        <linearGradient x1="55.8671159%" y1="106.995954%" x2="53.8085015%" y2="5.91785868%" id="linearGradient-1">
            <stop stop-color="#F2652A" offset="0%"></stop>
            <stop stop-color="#FFB000" offset="100%"></stop>
        </linearGradient>
        <linearGradient x1="46.3832601%" y1="20.0697431%" x2="48.2215155%" y2="70.763569%" id="linearGradient-2">
            <stop stop-color="#E4068E" offset="0%"></stop>
            <stop stop-color="#4878D0" offset="100%"></stop>
        </linearGradient>
        <linearGradient x1="50%" y1="0%" x2="50%" y2="100%" id="linearGradient-3">
            <stop stop-color="#00B098" offset="0%"></stop>
            <stop stop-color="#069AB9" offset="100%"></stop>
        </linearGradient>
        <linearGradient x1="48.9445701%" y1="78.0700152%" x2="44.1476098%" y2="12.1176435%" id="linearGradient-4">
            <stop stop-color="#53D880" offset="0%"></stop>
            <stop stop-color="#D6DD23" offset="100%"></stop>
        </linearGradient>
        <linearGradient x1="55.8671159%" y1="106.995954%" x2="53.8085015%" y2="5.91785868%" id="linearGradient-5">
            <stop stop-color="#EE4035" offset="0%"></stop>
            <stop stop-color="#EF8C32" offset="100%"></stop>
        </linearGradient>
    </defs>
    <g id="mainimage" stroke="none" stroke-width="1" fill="none" fill-rule="evenodd">
        <rect id="Rectangle" fill="#696C91" x="0" y="0" width="1921" height="1080"></rect>
        <g id="psychodelicHeart" transform="translate(-812.000000, -2086.500000)">
            <g id="Group" transform="translate(0.000000, 0.500000)">
                <path d="M1303.01504,801.09063 C1628.86164,801.159397 1892.99531,1065.29307 1893.06408,1391.13967 L1893.3489,2740.75871 C1893.41763,3066.42755 1629.46659,3330.49002 1303.79775,3330.55875 C1303.71479,3330.55877 1303.63182,3330.55877 1303.54886,3330.55875 C977.702261,3330.48998 713.568587,3066.35631 713.49982,2740.50971 L713.214996,1390.89067 C713.146267,1065.22183 977.097308,801.159359 1302.76615,801.09063 C1302.84911,801.090612 1302.93208,801.090612 1303.01504,801.09063 Z" id="Rectangle-Copy-5" fill="url(#linearGradient-1)" transform="translate(1303.281949, 2065.824690) rotate(-316.000000) translate(-1303.281949, -2065.824690) "></path>
                <path d="M1618.51536,1380.78378 L1840.02137,1380.8301 C2104.57503,1381.08587 2319.02435,1595.5352 2319.28011,1860.08886 L2319.75064,4110.27311 C2320.00633,4374.90503 2105.5246,4589.47648 1840.89264,4589.53182 C1840.82584,4589.53183 1840.75904,4589.53183 1840.69229,4589.33146 L1619.18628,4589.28514 C1354.63262,4589.02937 1140.1833,4374.58004 1139.92754,4110.02638 L1139.45701,1859.84213 C1139.20132,1595.21021 1353.68305,1380.63876 1618.31501,1380.58343 C1618.38181,1380.58341 1618.44861,1380.58341 1618.51536,1380.78378 Z" id="Rectangle-Copy-5" fill="url(#linearGradient-2)" fill-rule="nonzero" transform="translate(1729.603825, 2985.057620) rotate(-319.000000) translate(-1729.603825, -2985.057620) "></path>
                <path d="M2613.01406,1310.37116 C2942.28559,1310.44032 3209.19561,1577.35035 3209.26476,1906.62187 L3209.52299,3136.23764 C3209.59211,3465.33041 2942.86573,3732.16884 2613.77296,3732.23795 C2613.68953,3732.23797 2613.60611,3732.23797 2613.52268,3732.23795 C2284.25116,3732.1688 2017.34113,3465.25877 2017.27198,3135.98725 L2017.01375,1906.37147 C2016.94464,1577.2787 2283.67101,1310.44027 2612.76378,1310.37116 C2612.84721,1310.37115 2612.93064,1310.37115 2613.01406,1310.37116 Z" id="Rectangle-Copy-3" fill="url(#linearGradient-3)" transform="translate(2613.268371, 2521.304557) rotate(-318.000000) translate(-2613.268371, -2521.304557) "></path>
                <path d="M2190.83835,2225.47162 C2520.10987,2225.54078 2787.01989,2492.45081 2787.08904,2821.72233 L2787.34727,4051.3381 C2787.41639,4380.43087 2520.69001,4647.2693 2191.59724,4647.33841 C2191.51381,4647.33843 2191.43039,4647.33843 2191.34696,4647.33841 C1862.07544,4647.26926 1595.16541,4380.35923 1595.09626,4051.08771 L1594.83803,2821.47193 C1594.76892,2492.37916 1861.49529,2225.54073 2190.58806,2225.47162 C2190.67149,2225.47161 2190.75492,2225.47161 2190.83835,2225.47162 Z" id="Rectangle-Copy-7" fill="url(#linearGradient-4)" transform="translate(2191.092652, 3436.405017) rotate(-318.000000) translate(-2191.092652, -3436.405017) "></path>
                <path d="M1200.41458,55.736538 L1422.17141,55.7833383 C1686.66228,56.0413974 1901.06058,270.439695 1901.31863,534.930561 L1901.65026,2106.30644 C1901.90825,2370.87626 1687.47725,2585.39778 1422.90739,2585.45361 C1422.83999,2585.45363 1422.77259,2585.45363 1422.70523,2585.25146 L1200.9484,2585.20466 C936.45753,2584.9466 722.059233,2370.5483 721.801175,2106.05744 L721.469552,534.681562 C721.211562,270.111736 935.642554,55.5902182 1200.21242,55.5343833 C1200.27982,55.5343691 1200.34722,55.5343691 1200.41458,55.736538 Z" id="Rectangle-Copy-6" fill="url(#linearGradient-5)" transform="translate(1311.559904, 1320.493999) rotate(-316.000000) translate(-1311.559904, -1320.493999) "></path>
            </g>
        </g>
    </g>
</svg>