<?xml version="1.0" encoding="UTF-8"?>
<svg width="194px" height="257px" viewBox="0 0 194 257" version="1.1" xmlns="http://www.w3.org/2000/svg" xmlns:xlink="http://www.w3.org/1999/xlink">
    <title>forsale</title>
    <defs>
        <filter id="filter-1">
            <feColorMatrix in="SourceGraphic" type="matrix" values="0 0 0 0 0.882353 0 0 0 0 0.882353 0 0 0 0 0.882353 0 0 0 1.000000 0"></feColorMatrix>
        </filter>
    </defs>
    <g id="Page-1" stroke="none" stroke-width="1" fill="none" fill-rule="evenodd">
        <g id="challengeimage" transform="translate(-231.000000, -474.000000)">
            <g id="forsale" transform="translate(231.000000, 474.000000)">
                <g id="icon-/-tag" filter="url(#filter-1)">
                    <g>
                        <path d="M67.9107714,9.01728858 L112.42775,26.4069058 C112.851223,26.5723266 113.2057,26.8770904 113.432757,27.270967 L174.799823,133.724825 C175.350955,134.680879 175.02358,135.902662 174.068259,136.455063 L88.2969464,186.051085 C87.340728,186.604005 86.1173299,186.277066 85.5644104,185.320848 C85.5639676,185.320082 85.5635253,185.319316 85.5630835,185.318549 L24.1980868,78.8682813 C23.9713852,78.4750205 23.8852039,78.0163395 23.953705,77.5676132 L31.1762024,30.2556045 C31.2677827,29.6556944 31.6267938,29.1298136 32.1521485,28.8260348 L66.1819147,9.14881412 C66.7082515,8.84446749 67.3444512,8.79606757 67.9107714,9.01728858 Z M65.8883523,29.1 C58.9636115,29.1 53.35,34.7136115 53.35,41.6383523 C53.35,48.563093 58.9636115,54.1767045 65.8883523,54.1767045 C72.813093,54.1767045 78.4267045,48.563093 78.4267045,41.6383523 C78.4267045,34.7136115 72.813093,29.1 65.8883523,29.1 Z" id="Combined-Shape" fill="#EFEFEF"></path>
                    </g>
                </g>
                <path d="M40.9467701,256 L40.9467701,249.884 L46.4907701,249.884 L46.4907701,246.804 L40.9467701,246.804 L40.9467701,243.768 L48.8887701,243.768 L48.8887701,240.6 L37.1627701,240.6 L37.1627701,256 L40.9467701,256 Z M59.4633276,256.242 C60.5779942,256.242 61.6193276,256.036667 62.5873276,255.626 C63.5553276,255.215333 64.3949942,254.654333 65.1063276,253.943 C65.8176609,253.231667 66.3786609,252.388333 66.7893276,251.413 C67.1999942,250.437667 67.4053276,249.4 67.4053276,248.3 C67.4053276,247.2 67.1999942,246.162333 66.7893276,245.187 C66.3786609,244.211667 65.8176609,243.368333 65.1063276,242.657 C64.3949942,241.945667 63.5553276,241.384667 62.5873276,240.974 C61.6193276,240.563333 60.5779942,240.358 59.4633276,240.358 C58.3486609,240.358 57.3036609,240.563333 56.3283276,240.974 C55.3529942,241.384667 54.5096609,241.945667 53.7983276,242.657 C53.0869942,243.368333 52.5259942,244.211667 52.1153276,245.187 C51.7046609,246.162333 51.4993276,247.2 51.4993276,248.3 C51.4993276,249.4 51.7046609,250.437667 52.1153276,251.413 C52.5259942,252.388333 53.0869942,253.231667 53.7983276,253.943 C54.5096609,254.654333 55.3529942,255.215333 56.3283276,255.626 C57.3036609,256.036667 58.3486609,256.242 59.4633276,256.242 Z M59.4413276,252.876 C58.8693276,252.876 58.3339942,252.758667 57.8353276,252.524 C57.3366609,252.289333 56.9076609,251.970333 56.5483276,251.567 C56.1889942,251.163667 55.9066609,250.679667 55.7013276,250.115 C55.4959942,249.550333 55.3933276,248.945333 55.3933276,248.3 C55.3933276,247.654667 55.4959942,247.049667 55.7013276,246.485 C55.9066609,245.920333 56.1889942,245.436333 56.5483276,245.033 C56.9076609,244.629667 57.3366609,244.310667 57.8353276,244.076 C58.3339942,243.841333 58.8693276,243.724 59.4413276,243.724 C60.0133276,243.724 60.5486609,243.841333 61.0473276,244.076 C61.5459942,244.310667 61.9749942,244.629667 62.3343276,245.033 C62.6936609,245.436333 62.9759942,245.920333 63.1813276,246.485 C63.3866609,247.049667 63.4893276,247.654667 63.4893276,248.3 C63.4893276,248.945333 63.3866609,249.550333 63.1813276,250.115 C62.9759942,250.679667 62.6936609,251.163667 62.3343276,251.567 C61.9749942,251.970333 61.5459942,252.289333 61.0473276,252.524 C60.5486609,252.758667 60.0133276,252.876 59.4413276,252.876 Z M75.2518851,256 L75.2518851,250.346 L77.7378851,250.346 L80.5318851,256 L84.7558851,256 L81.5218851,249.818 C82.3872184,249.436667 83.0802184,248.864667 83.6008851,248.102 C84.1215517,247.339333 84.3818851,246.474 84.3818851,245.506 C84.3818851,244.787333 84.2462184,244.127333 83.9748851,243.526 C83.7035517,242.924667 83.3295517,242.407667 82.8528851,241.975 C82.3762184,241.542333 81.8042184,241.205 81.1368851,240.963 C80.4695517,240.721 79.7398851,240.6 78.9478851,240.6 L78.9478851,240.6 L71.4678851,240.6 L71.4678851,256 L75.2518851,256 Z M78.5958851,247.376 L75.2518851,247.376 L75.2518851,243.724 L78.5958851,243.724 C79.1825517,243.724 79.6555517,243.892667 80.0148851,244.23 C80.3742184,244.567333 80.5538851,245.007333 80.5538851,245.55 C80.5538851,246.092667 80.3742184,246.532667 80.0148851,246.87 C79.6555517,247.207333 79.1825517,247.376 78.5958851,247.376 L78.5958851,247.376 Z M99.745,256.22 C101.754333,256.22 103.353,255.750667 104.541,254.812 C105.729,253.873333 106.323,252.663333 106.323,251.182 C106.323,250.008667 105.949,249.051667 105.201,248.311 C104.453,247.570333 103.360333,247.075333 101.923,246.826 L101.923,246.826 L98.843,246.298 C98.227,246.195333 97.7833333,246.034 97.512,245.814 C97.2406667,245.594 97.105,245.293333 97.105,244.912 C97.105,244.501333 97.3103333,244.156667 97.721,243.878 C98.1316667,243.599333 98.711,243.46 99.459,243.46 C100.265667,243.46 101.046667,243.599333 101.802,243.878 C102.557333,244.156667 103.309,244.582 104.057,245.154 L104.057,245.154 L105.971,242.404 C105.179,241.773333 104.225667,241.278333 103.111,240.919 C101.996333,240.559667 100.845,240.38 99.657,240.38 C97.7503333,240.38 96.2543333,240.82 95.169,241.7 C94.0836667,242.58 93.541,243.760667 93.541,245.242 C93.541,246.312667 93.8673333,247.207333 94.52,247.926 C95.1726667,248.644667 96.1076667,249.121333 97.325,249.356 L97.325,249.356 L100.603,249.928 C101.351,250.074667 101.875333,250.265333 102.176,250.5 C102.476667,250.734667 102.627,251.079333 102.627,251.534 C102.627,252.003333 102.392333,252.388333 101.923,252.689 C101.453667,252.989667 100.815667,253.14 100.009,253.14 C99.261,253.14 98.5056667,252.986 97.743,252.678 C96.9803333,252.37 96.071,251.842 95.015,251.094 L95.015,251.094 L93.079,253.888 C94.091,254.636 95.1506667,255.211667 96.258,255.615 C97.3653333,256.018333 98.5276667,256.22 99.745,256.22 Z M112.189557,256 L113.487557,252.326 L119.119557,252.326 L120.395557,256 L124.487557,256 L118.569557,240.6 L114.257557,240.6 L108.251557,256 L112.189557,256 Z M118.107557,249.4 L114.521557,249.4 L116.325557,244.296 L118.107557,249.4 Z M139.022115,256 L139.022115,252.766 L131.388115,252.766 L131.388115,240.6 L127.604115,240.6 L127.604115,256 L139.022115,256 Z M154.942672,256 L154.942672,252.832 L147.000672,252.832 L147.000672,249.774 L152.544672,249.774 L152.544672,246.694 L147.000672,246.694 L147.000672,243.768 L154.854672,243.768 L154.854672,240.6 L143.216672,240.6 L143.216672,256 L154.942672,256 Z" id="FORSALE" fill="#FFFFFF" fill-rule="nonzero"></path>
            </g>
        </g>
    </g>
</svg>