<?xml version="1.0" encoding="UTF-8"?>
<svg width="194px" height="256px" viewBox="0 0 194 256" version="1.1" xmlns="http://www.w3.org/2000/svg" xmlns:xlink="http://www.w3.org/1999/xlink">
    <title>helpwanted</title>
    <g id="Page-1" stroke="none" stroke-width="1" fill="none" fill-rule="evenodd">
        <g id="challengeimage" transform="translate(-643.000000, -474.000000)" fill-rule="nonzero">
            <g id="helpwanted" transform="translate(643.000000, 474.000000)">
                <g id="icon-/-talkBox">
                    <path d="M62.961627,151.461979 L36.4558135,178.174997 C31.9515647,182.714456 24.25,179.499426 24.25,173.07966 L24.25,36.167681 C24.25,24.2285654 33.8534921,14.55 45.7,14.55 L145.8,14.55 C157.646508,14.55 167.25,24.2285654 167.25,36.167681 L167.25,129.844298 C167.25,141.783414 157.646508,151.461979 145.8,151.461979 L62.961627,151.461979 Z" id="Path" fill="#00D4BA"></path>
                    <rect id="Rectangle" fill="#FFFFFF" x="52.9090909" y="102.595455" width="54.4761905" height="13.8125"></rect>
                    <rect id="Rectangle" fill="#FFFFFF" x="52.9090909" y="73.9363636" width="88.5238095" height="13.8125"></rect>
                    <rect id="Rectangle" fill="#FFFFFF" x="52.9090909" y="43.2090909" width="88.5238095" height="13.8125"></rect>
                </g>
                <path d="M11.2689339,256 L11.2689339,249.906 L17.4949339,249.906 L17.4949339,256 L21.2789339,256 L21.2789339,240.6 L17.4949339,240.6 L17.4949339,246.584 L11.2689339,246.584 L11.2689339,240.6 L7.4849339,240.6 L7.4849339,256 L11.2689339,256 Z M37.5734914,256 L37.5734914,252.832 L29.6314914,252.832 L29.6314914,249.774 L35.1754914,249.774 L35.1754914,246.694 L29.6314914,246.694 L29.6314914,243.768 L37.4854914,243.768 L37.4854914,240.6 L25.8474914,240.6 L25.8474914,256 L37.5734914,256 Z M53.3180488,256 L53.3180488,252.766 L45.6840488,252.766 L45.6840488,240.6 L41.9000488,240.6 L41.9000488,256 L53.3180488,256 Z M61.2966063,256 L61.2966063,250.632 L65.0366063,250.632 C65.8579397,250.632 66.602273,250.503667 67.2696063,250.247 C67.9369397,249.990333 68.5089397,249.642 68.9856063,249.202 C69.462273,248.762 69.8289397,248.237667 70.0856063,247.629 C70.342273,247.020333 70.4706063,246.371333 70.4706063,245.682 C70.4706063,244.948667 70.342273,244.270333 70.0856063,243.647 C69.8289397,243.023667 69.462273,242.488333 68.9856063,242.041 C68.5089397,241.593667 67.9369397,241.241667 67.2696063,240.985 C66.602273,240.728333 65.8579397,240.6 65.0366063,240.6 L65.0366063,240.6 L57.5126063,240.6 L57.5126063,256 L61.2966063,256 Z M64.3546063,247.618 L61.2966063,247.618 L61.2966063,243.724 L64.3766063,243.724 C65.1246063,243.724 65.689273,243.911 66.0706063,244.285 C66.4519397,244.659 66.6426063,245.117333 66.6426063,245.66 C66.6426063,246.217333 66.4519397,246.683 66.0706063,247.057 C65.689273,247.431 65.117273,247.618 64.3546063,247.618 L64.3546063,247.618 Z M86.9557213,256 L89.6837213,246.078 L92.3897213,256 L96.3937213,256 L99.8257213,240.6 L96.0637213,240.6 L94.1937213,250.148 L91.5097213,240.6 L87.9677213,240.6 L85.2837213,250.148 L83.4137213,240.6 L79.5197213,240.6 L82.9517213,256 L86.9557213,256 Z M104.504279,256 L105.802279,252.326 L111.434279,252.326 L112.710279,256 L116.802279,256 L110.884279,240.6 L106.572279,240.6 L100.566279,256 L104.504279,256 Z M110.422279,249.4 L106.836279,249.4 L108.640279,244.296 L110.422279,249.4 Z M123.482836,256 L123.416836,246.364 L130.478836,256 L133.822836,256 L133.822836,240.6 L130.258836,240.6 L130.324836,249.928 L123.482836,240.6 L119.918836,240.6 L119.918836,256 L123.482836,256 Z M146.113394,256 L146.113394,243.834 L151.063394,243.834 L151.063394,240.6 L137.357394,240.6 L137.357394,243.834 L142.329394,243.834 L142.329394,256 L146.113394,256 Z M166.323951,256 L166.323951,252.832 L158.381951,252.832 L158.381951,249.774 L163.925951,249.774 L163.925951,246.694 L158.381951,246.694 L158.381951,243.768 L166.235951,243.768 L166.235951,240.6 L154.597951,240.6 L154.597951,256 L166.323951,256 Z M176.920509,256 C177.991175,256 178.999509,255.802 179.945509,255.406 C180.891509,255.01 181.712842,254.467333 182.409509,253.778 C183.106175,253.088667 183.656175,252.274667 184.059509,251.336 C184.462842,250.397333 184.664509,249.4 184.664509,248.344 C184.664509,247.258667 184.462842,246.243 184.059509,245.297 C183.656175,244.351 183.106175,243.533333 182.409509,242.844 C181.712842,242.154667 180.891509,241.608333 179.945509,241.205 C178.999509,240.801667 177.991175,240.6 176.920509,240.6 L176.920509,240.6 L170.650509,240.6 L170.650509,256 L176.920509,256 Z M176.920509,252.766 L174.434509,252.766 L174.434509,243.834 L176.920509,243.834 C177.448509,243.834 177.947175,243.951333 178.416509,244.186 C178.885842,244.420667 179.292842,244.739667 179.637509,245.143 C179.982175,245.546333 180.253509,246.023 180.451509,246.573 C180.649509,247.123 180.748509,247.713333 180.748509,248.344 C180.748509,248.96 180.649509,249.539333 180.451509,250.082 C180.253509,250.624667 179.982175,251.094 179.637509,251.49 C179.292842,251.886 178.885842,252.197667 178.416509,252.425 C177.947175,252.652333 177.448509,252.766 176.920509,252.766 L176.920509,252.766 Z" id="HELPWANTED" fill="#FFFFFF"></path>
            </g>
        </g>
    </g>
</svg>