<svg height="58" viewBox="0 0 124 58" width="124" xmlns="http://www.w3.org/2000/svg" xmlns:xlink="http://www.w3.org/1999/xlink"><linearGradient id="a" x1="0%" x2="50%" y1="22.404823%" y2="50%"><stop offset="0" stop-color="#d400ff"/><stop offset="1" stop-color="#9453ce"/></linearGradient><linearGradient id="b" x1="81.266198%" x2="58.035445%" y1="-5.95589%" y2="60.09825%"><stop offset="0" stop-color="#d6de23"/><stop offset="1" stop-color="#00d4ba"/></linearGradient><g fill="none" fill-rule="evenodd"><path d="m7.04506893 9.90766202c.58822906 0 1.0533404-.46981939 1.0533404-1.06400275v-7.71056543c0-.59418335-.46511134-1.06400275-1.0533404-1.06400275s-1.0533404.4698194-1.0533404 1.06400275v2.84655283h-3.88504772v-2.84655283c0-.59418335-.46511135-1.06400275-1.05334041-1.06400275-.58822905 0-1.0533404.4698194-1.0533404 1.06400275v7.71056543c0 .59418336.46511135 1.06400275 1.0533404 1.06400275.58822906 0 1.05334041-.46981939 1.05334041-1.06400275v-2.9018257h3.88504772v2.9018257c0 .59418336.46511134 1.06400275 1.0533404 1.06400275zm7.34602337.06909109c2.5717921 0 4.1996818-1.43709463 4.1996818-4.36655676v-4.47710251c0-.59418335-.4651113-1.06400275-1.0533404-1.06400275-.588229 0-1.0533404.4698194-1.0533404 1.06400275v4.56001181c0 1.53382216-.7797455 2.32146056-2.0656416 2.32146056-1.285896 0-2.0656415-.81527484-2.0656415-2.39055164v-4.49092073c0-.59418335-.4651114-1.06400275-1.0533404-1.06400275-.5882291 0-1.0533404.4698194-1.0533404 1.06400275v4.5461936c0 2.84655282 1.5731707 4.29746567 4.1449629 4.29746567zm14.8698833-.06909109c.5882291 0 1.0533404-.46981939 1.0533404-1.06400275v-7.68292899c0-.59418336-.4651113-1.06400276-1.0533404-1.06400276h-.2325557c-.4240721 0-.7250265.17963683-.9439024.53891049l-2.5581124 4.20073815-2.5444327-4.18691993c-.1915164-.31781901-.5061506-.55272871-.9575822-.55272871h-.2325556c-.5882291 0-1.0533404.4698194-1.0533404 1.06400276v7.71056542c0 .58036514.4514316 1.03636632 1.0259809 1.03636632s1.0396606-.45600118 1.0396606-1.03636632v-4.80873972l1.8194062 2.83273461c.2188759.33163722.4924708.53891048.8755037.53891048s.6566278-.20727326.8755037-.53891048l1.8467657-2.87418927v4.82255795c0 .58036514.4651113 1.06400275 1.0396606 1.06400275zm11.1763521 0c.5608695 0 .9986214-.45600118.9986214-1.0225481 0-.13818217-.0410392-.27636435-.109438-.42836474l-3.3378579-7.61383791c-.2325556-.52509226-.642948-.84291127-1.2174973-.84291127h-.1231177c-.5745493 0-.9986214.31781901-1.2311771.84291127l-3.3378579 7.61383791c-.0683987.15200039-.1231177.30400078-.1231177.45600118 0 .5527287.4240721.99491166.9712619.99491166.4377519 0 .7934252-.24872791.9712619-.66327444l.6703076-1.58909503h4.2133616l.642948 1.52000394c.1915164.44218296.5198303.73236553 1.0123012.73236553zm-2.4349947-4.13164706h-2.6538706l1.3269353-3.19200827zm6.128526 4.13164706c.5745493 0 1.0396606-.46981939 1.0396606-1.05018453v-5.18183161l4.2133616 5.58255992c.2872747.37309187.5882291.62181979 1.0943797.62181979h.0683987c.5882291 0 1.0533404-.4698194 1.0533404-1.06400276v-7.6967472c0-.58036514-.4651113-1.05018454-1.0396607-1.05018454-.5745493 0-1.0396606.4698194-1.0396606 1.05018454v4.98837655l-4.0628844-5.38910486c-.2872747-.37309188-.5882291-.6218198-1.0943797-.6218198h-.2188759c-.588229 0-1.0533404.4698194-1.0533404 1.06400276v7.69674721c0 .58036514.4651114 1.05018453 1.0396607 1.05018453zm-37.19522803 11.69233798c.61558854 0 1.06702014-.442183 1.06702014-1.0363663 0-.317819-.12311771-.5389105-.28727465-.7461838l-2.94114528-3.7309187 2.69490986-2.5425521c.23255567-.2210914.38303287-.4698194.38303287-.8014566 0-.5250923-.38303287-.9810934-.97126193-.9810934-.36935313 0-.62926829.1520004-.88918345.4145465l-3.88504772 3.8967374v-3.2472812c0-.5941833-.46511135-1.0640027-1.05334041-1.0640027-.58822905 0-1.0533404.4698194-1.0533404 1.0640027v7.7105654c0 .5941834.46511135 1.0640028 1.0533404 1.0640028.58822906 0 1.05334041-.4698194 1.05334041-1.0640028v-1.9345504l1.2038176-1.1330939 2.7359491 3.620373c.23255567.3040008.47879109.5112741.88918346.5112741zm3.95344643 0c.5882291 0 1.0533404-.4698194 1.0533404-1.0640028v-7.7105654c0-.5941833-.4651113-1.0640027-1.0533404-1.0640027-.588229 0-1.05334039.4698194-1.05334039 1.0640027v7.7105654c0 .5941834.46511139 1.0640028 1.05334039 1.0640028zm4.4869565 0c.5745493 0 1.0396607-.4698194 1.0396607-1.0501845v-5.1818316l4.2133616 5.5825599c.2872747.3730918.5882291.6218198 1.0943796.6218198h.0683988c.588229 0 1.0533404-.4698194 1.0533404-1.0640028v-7.6967472c0-.5803651-.4651114-1.0501845-1.0396607-1.0501845s-1.0396606.4698194-1.0396606 1.0501845v4.9883766l-4.0628845-5.3891049c-.2872746-.3730919-.588229-.6218198-1.0943796-.6218198h-.2188759c-.5882291 0-1.0533404.4698194-1.0533404 1.0640028v7.6967472c0 .5803651.4651113 1.0501845 1.0396606 1.0501845zm13.5019088-.0829093c3.009544 0 5.0888654-2.1141873 5.0888654-4.8363762v-.0276364c0-2.7221889-2.0793214-4.8087397-5.0888654-4.8087397h-2.6812301c-.588229 0-1.0533404.4698194-1.0533404 1.0640027v7.5447468c0 .5941834.4651114 1.0640028 1.0533404 1.0640028zm0-1.9207323h-1.6278897v-5.8312878h1.6278897c1.723648 0 2.8864263 1.2021849 2.8864263 2.9156439v.0276365c0 1.713459-1.1627783 2.8880074-2.8864263 2.8880074z" fill="#000" transform="translate(72 36)"/><g fill-rule="nonzero"><path d="m48.4 23.2-17.9-16.1c-7.2819401-6.48963302-18.4304362-5.90991123-25 1.3-3.13090711 3.500234-4.74246539 8.1012284-4.47989004 12.7900738.26257534 4.6888455 2.37775794 9.0811424 5.87989004 12.2099262l16.4 14.8z" fill="url(#a)"/><path d="m12.1 38 9.7 8.7 1.7 1.5 25-25-19.1-17.2z" fill="#231f20" opacity=".29"/><path d="m63.9 6.7-1.1-1.1-.2-.2c-7.2686988-6.41625693-18.3576205-5.74555602-24.8 1.5l-26.2 30.8 20.7 18.4c1.2845441 1.1574769 2.9773339 1.7554384 4.7038915 1.6616037 1.7265577-.0938346 3.3445726-.8717311 4.4961085-2.1616037l23-25.7c5.881582-6.7061739 5.6203587-16.8068074-.6-23.2z" fill="url(#b)"/></g></g></svg>