<svg height="262" viewBox="0 0 262 262" width="262" xmlns="http://www.w3.org/2000/svg" xmlns:xlink="http://www.w3.org/1999/xlink"><filter id="a"><feColorMatrix in="SourceGraphic" type="matrix" values="0 0 0 0 1.000000 0 0 0 0 1.000000 0 0 0 0 1.000000 0 0 0 1.000000 0"/></filter><g fill="none" fill-rule="evenodd" filter="url(#a)" transform="translate(-830 -409)"><g fill="#fff" transform="translate(830 409)"><path d="m131 0c72.349302 0 131 58.6506978 131 131 0 72.349302-58.650698 131-131 131-72.3493022 0-131-58.650698-131-131 0-72.3493022 58.6506978-131 131-131zm0 21c-60.7513225 0-110 49.2486775-110 110 0 60.751322 49.2486775 110 110 110 60.751322 0 110-49.248678 110-110 0-60.7513225-49.248678-110-110-110z"/><path d="m152.155418 83.3108351 49.055728 98.1114559c1.975914 3.951828.374119 8.757213-3.577709 10.733127-1.110844.555421-2.335748.844582-3.577709.844582h-98.1114561c-4.418278 0-8-3.581722-8-8 0-1.241961.2891607-2.466865.8445825-3.577709l49.0557276-98.1114559c1.975914-3.951828 6.781299-5.5536228 10.733127-3.5777088 1.548219.7741096 2.803599 2.0294895 3.577709 3.5777088z" transform="matrix(0 1 -1 0 276 -14)"/></g></g></svg>