<svg height="152" viewBox="0 0 266 152" width="266" xmlns="http://www.w3.org/2000/svg" xmlns:xlink="http://www.w3.org/1999/xlink"><filter id="a"><feColorMatrix in="SourceGraphic" type="matrix" values="0 0 0 0 1.000000 0 0 0 0 1.000000 0 0 0 0 1.000000 0 0 0 1.000000 0"/></filter><g fill="none" fill-rule="evenodd"><g filter="url(#a)"><path d="m36.0382372 50.4390067c3.0090179 0 5.3882413-2.3918079 5.3882413-5.4167413v-39.25378765c0-3.02493345-2.3792234-5.4167413-5.3882413-5.4167413s-5.3882413 2.39180785-5.3882413 5.4167413v14.49154165h-19.8735133v-14.49154165c0-3.02493345-2.37922344-5.4167413-5.38824131-5.4167413-3.00901786 0-5.38824129 2.39180785-5.38824129 5.4167413v39.25378765c0 3.0249334 2.37922343 5.4167413 5.38824129 5.4167413 3.00901787 0 5.38824131-2.3918079 5.38824131-5.4167413v-14.7729309h19.8735133v14.7729309c0 3.0249334 2.3792234 5.4167413 5.3882413 5.4167413zm37.5777347.3517364c13.1557061 0 21.482988-7.3161181 21.482988-22.2297435v-22.79252185c0-3.02493345-2.3792234-5.4167413-5.3882412-5.4167413-3.0090179 0-5.3882413 2.39180785-5.3882413 5.4167413v23.21460555c0 7.8085492-3.9886981 11.8183447-10.5665511 11.8183447s-10.5665511-4.1504901-10.5665511-12.1700811v-22.86286915c0-3.02493345-2.3792235-5.4167413-5.3882413-5.4167413-3.0090179 0-5.3882413 2.39180785-5.3882413 5.4167413v23.14425825c0 14.4915417 8.0473733 21.8780071 21.2030793 21.8780071zm76.0651721-.3517364c3.009018 0 5.388242-2.3918079 5.388242-5.4167413v-39.11309307c0-3.02493345-2.379224-5.4167413-5.388242-5.4167413h-1.189611c-2.169292 0-3.70879.91451476-4.828424 2.74354429l-13.085729 21.38557608-13.015752-21.31522879c-.97968-1.61798766-2.589155-2.81389158-4.898401-2.81389158h-1.189612c-3.009018 0-5.388241 2.39180785-5.388241 5.4167413v39.25378757c0 2.9545862 2.309246 5.2760468 5.248287 5.2760468s5.318264-2.3214606 5.318264-5.2760468v-24.4808567l9.306962 14.4211943c1.119635 1.688335 2.519178 2.7435443 4.478539 2.7435443 1.95936 0 3.358903-1.0552093 4.478538-2.7435443l9.446916-14.6322362v24.5512041c0 2.9545861 2.379224 5.4167413 5.318264 5.4167413zm57.17134 0c2.869063 0 5.108333-2.3214606 5.108333-5.2056995 0-.7034729-.209932-1.4069458-.559818-2.1807659l-17.074427-38.76135663c-1.189611-2.67319701-3.288926-4.29118467-6.227967-4.29118467h-.629794c-2.939041 0-5.108333 1.61798766-6.297945 4.29118467l-17.074427 38.76135663c-.349885.7738201-.629794 1.5476403-.629794 2.3214605 0 2.8138916 2.169292 5.0650049 4.968378 5.0650049 2.239269 0 4.058676-1.2662512 4.968379-3.3766699l3.42888-8.0899383h21.552966l3.288926 7.7382018c.97968 2.2511133 2.659132 3.7284064 5.17831 3.7284064zm-12.455935-21.0338396h-13.575568l6.787784-16.2502239zm31.349768 21.0338396c2.939041 0 5.318264-2.3918079 5.318264-5.346394v-26.3802337l21.552965 28.4203051c1.469521 1.8993768 3.009018 3.165628 5.598173 3.165628h.349886c3.009018 0 5.388241-2.3918079 5.388241-5.4167413v-39.18344034c0-2.95458616-2.379223-5.34639401-5.318264-5.34639401s-5.318264 2.39180785-5.318264 5.34639401v25.39537154l-20.783217-27.43544294c-1.46952-1.89937682-3.009017-3.16562803-5.598172-3.16562803h-1.119635c-3.009018 0-5.388241 2.39180785-5.388241 5.4167413v39.18344037c0 2.9545861 2.379223 5.346394 5.318264 5.346394zm-190.2678971 59.5246293c3.1489722 0 5.4582185-2.251113 5.4582185-5.276046 0-1.617988-.6297944-2.743545-1.4695204-3.798754l-15.0450893-18.9937682 13.7855005-12.9439013c1.1896117-1.1255566 1.9593604-2.3918078 1.9593604-4.0801428 0-2.673197-1.9593604-4.9946576-4.9683783-4.9946576-1.8893833 0-3.2189493.7738202-4.5485154 2.1104187l-19.8735133 19.8379357v-16.5316131c0-3.0249334-2.37922344-5.4167413-5.38824131-5.4167413-3.00901786 0-5.38824129 2.3918079-5.38824129 5.4167413v39.2537876c0 3.024934 2.37922343 5.416741 5.38824129 5.416741 3.00901787 0 5.38824131-2.391807 5.38824131-5.416741v-9.8486205l6.15799-5.7684777 13.995432 18.4309902c1.1896117 1.54764 2.4492005 2.602849 4.5485153 2.602849zm20.2233992 0c3.0090178 0 5.3882413-2.391807 5.3882413-5.416741v-39.2537876c0-3.0249334-2.3792235-5.4167413-5.3882413-5.4167413-3.0090179 0-5.3882413 2.3918079-5.3882413 5.4167413v39.2537876c0 3.024934 2.3792234 5.416741 5.3882413 5.416741zm22.9525083 0c2.9390407 0 5.3182642-2.391807 5.3182642-5.346394v-26.3802333l21.5529654 28.4203053c1.46952 1.899377 3.009018 3.165628 5.598173 3.165628h.349885c3.009018 0 5.388242-2.391808 5.388242-5.416742v-39.1834398c0-2.9545862-2.379224-5.3463941-5.318265-5.3463941-2.93904 0-5.318264 2.3918079-5.318264 5.3463941v25.3953715l-20.7832161-27.4354429c-1.4695203-1.8993769-3.0090178-3.1656281-5.5981728-3.1656281h-1.1196345c-3.0090179 0-5.3882413 2.3918079-5.3882413 5.4167413v39.18344c0 2.954587 2.3792234 5.346394 5.3182641 5.346394zm69.0674566-.422083c15.394975 0 26.031503-10.7631357 26.031503-24.6215517v-.1406946c0-13.8584161-10.636528-24.4808568-26.031503-24.4808568h-13.715523c-3.009018 0-5.388242 2.3918078-5.388242 5.4167413v38.4096198c0 3.024934 2.379224 5.416742 5.388242 5.416742zm0-9.7782736h-8.327282v-29.6865563h8.327282c8.817122 0 14.765181 6.1202142 14.765181 14.8432782v.1406945c0 8.7230639-5.948059 14.7025836-14.765181 14.7025836z" fill="#000"/></g><path d="m12.32 151c.9706667 0 1.862-.135333 2.674-.406s1.512-.648667 2.1-1.134 1.0453333-1.064 1.372-1.736.49-1.409333.49-2.212c0-1.008-.3173333-1.908667-.952-2.702s-1.456-1.395333-2.464-1.806c.8586667-.448 1.5493333-1.040667 2.072-1.778s.784-1.563333.784-2.478c0-.765333-.1633333-1.479333-.49-2.142s-.7746667-1.227333-1.344-1.694-1.2553333-.835333-2.058-1.106-1.68-.406-2.632-.406h-9.688v19.6zm-1.008-11.732h-4.312v-4.032h4.312c.6906667 0 1.2366667.182 1.638.546s.602.854.602 1.47c0 .597333-.2053333 1.082667-.616 1.456s-.952.56-1.624.56zm.392 7.896h-4.704v-4.312h4.704c.728 0 1.3066667.196 1.736.588s.644.914667.644 1.568-.2146667 1.176-.644 1.568-1.008.588-1.736.588zm17.444 4.116c1.2133333 0 2.296-.182 3.248-.546s1.8946667-.956667 2.828-1.778l-2.996-2.492c-.3173333.392-.7233333.690667-1.218.896s-1.0406667.308-1.638.308c-.8213333 0-1.54-.252-2.156-.756s-1.0266667-1.157333-1.232-1.96h9.94v-.98c0-1.12-.1773333-2.151333-.532-3.094s-.8446667-1.75-1.47-2.422-1.372-1.199333-2.24-1.582-1.8246667-.574-2.87-.574c-1.0266667 0-1.988.191333-2.884.574s-1.666.91-2.31 1.582-1.1526667 1.465333-1.526 2.38-.56 1.904-.56 2.968c0 1.045333.196 2.025333.588 2.94s.9333333 1.708 1.624 2.38 1.498 1.199333 2.422 1.582 1.918.574 2.982.574zm2.576-8.904h-5.74c.1866667-.802667.5226667-1.428 1.008-1.876s1.0826667-.672 1.792-.672c.728 0 1.3533333.228667 1.876.686s.8773333 1.078 1.064 1.862zm23.604 8.624c.9706667 0 1.862-.135333 2.674-.406s1.512-.648667 2.1-1.134 1.0453333-1.064 1.372-1.736.49-1.409333.49-2.212c0-1.008-.3173333-1.908667-.952-2.702s-1.456-1.395333-2.464-1.806c.8586667-.448 1.5493333-1.040667 2.072-1.778s.784-1.563333.784-2.478c0-.765333-.1633333-1.479333-.49-2.142s-.7746667-1.227333-1.344-1.694-1.2553333-.835333-2.058-1.106-1.68-.406-2.632-.406h-9.688v19.6zm-1.008-11.732h-4.312v-4.032h4.312c.6906667 0 1.2366667.182 1.638.546s.602.854.602 1.47c0 .597333-.2053333 1.082667-.616 1.456s-.952.56-1.624.56zm.392 7.896h-4.704v-4.312h4.704c.728 0 1.3066667.196 1.736.588s.644.914667.644 1.568-.2146667 1.176-.644 1.568-1.008.588-1.736.588zm17.36 4.116c1.064 0 2.058-.191333 2.982-.574s1.722-.905333 2.394-1.568 1.204-1.451333 1.596-2.366.588-1.904.588-2.968-.1913333-2.053333-.574-2.968-.91-1.703333-1.582-2.366-1.4746667-1.185333-2.408-1.568-1.932-.574-2.996-.574-2.058.191333-2.982.574-1.722.905333-2.394 1.568-1.1993333 1.451333-1.582 2.366-.574 1.904-.574 2.968c0 1.045333.1913333 2.025333.574 2.94s.91 1.708 1.582 2.38 1.47 1.199333 2.394 1.582 1.918.574 2.982.574zm0-3.836c-.9146667 0-1.6613333-.340667-2.24-1.022s-.868-1.554-.868-2.618.2893333-1.946.868-2.646 1.3253333-1.05 2.24-1.05 1.666.35 2.254 1.05.882 1.582.882 2.646-.294 1.936667-.882 2.618-1.3393333 1.022-2.254 1.022zm17.528 3.752c.4666667 0 .9986667-.042 1.596-.126s1.1013333-.191333 1.512-.322v-3.668c-.448.130667-.8026667.214667-1.064.252s-.5226667.056-.784.056c-.6906667 0-1.1806667-.130667-1.47-.392s-.434-.709333-.434-1.344v-5.6h3.864v-3.5h-3.864v-4.928l-4.536.924v4.004h-2.8v3.5h2.8v6.496c0 1.530667.4386667 2.688 1.316 3.472s2.1653333 1.176 3.864 1.176zm10.276-.196v-9.912c.317333-.410667.676667-.714 1.078-.91s.844667-.294 1.33-.294c.728 0 1.311333.247333 1.75.742s.658 1.143333.658 1.946v8.428h4.536v-9.744c0-1.437333-.448-2.618-1.344-3.542s-2.044-1.386-3.444-1.386c-.933333 0-1.787333.219333-2.562.658s-1.442 1.078-2.002 1.918v-8.624l-4.536.7v20.02zm14.868.308c.690667 0 1.283333-.261333 1.778-.784s.742-1.148.742-1.876-.247333-1.353333-.742-1.876-1.087333-.784-1.778-.784-1.288.261333-1.792.784-.756 1.148-.756 1.876.252 1.353333.756 1.876 1.101333.784 1.792.784z" fill="#fff" fill-rule="nonzero"/></g></svg>